<?xml version="1.0" standalone="no"?>
<!DOCTYPE svg PUBLIC "-//W3C//DTD SVG 20010904//EN"
 "http://www.w3.org/TR/2001/REC-SVG-20010904/DTD/svg10.dtd">
<svg version="1.0" xmlns="http://www.w3.org/2000/svg"
 width="400.000000pt" height="400.000000pt" viewBox="0 0 400.000000 400.000000"
 preserveAspectRatio="xMidYMid meet">
<metadata>
Created by potrace 1.11, written by Peter Selinger 2001-2013
</metadata>
<g transform="translate(0.000000,400.000000) scale(0.100000,-0.100000)"
fill="#000000" stroke="none">
<path d="M1679 3938 c-17 -35 -47 -84 -65 -111 -19 -26 -79 -141 -134 -255
-56 -114 -138 -281 -184 -372 -46 -91 -111 -228 -145 -305 -33 -77 -69 -156
-79 -175 -51 -94 -129 -232 -167 -295 -24 -38 -64 -113 -90 -165 -26 -52 -63
-114 -82 -137 l-34 -43 -347 -2 -347 -3 0 -105 0 -105 376 -3 376 -2 40 -48
c21 -26 53 -67 70 -92 17 -25 50 -67 74 -94 47 -53 82 -103 236 -336 263 -399
340 -510 388 -560 29 -30 70 -86 91 -125 45 -82 119 -202 165 -265 18 -25 53
-85 77 -135 61 -122 95 -169 136 -189 91 -43 137 -10 196 141 23 60 70 153
104 208 35 55 80 129 101 165 53 90 159 262 210 340 23 36 70 118 103 182 34
64 85 154 114 200 45 73 84 139 232 396 20 34 67 103 104 152 l67 90 368 0
367 0 0 110 0 110 -334 0 -334 0 -21 49 c-11 27 -21 56 -21 63 0 24 -59 138
-103 201 -25 34 -52 78 -62 97 -9 19 -52 71 -94 115 -43 44 -86 92 -97 106
-10 15 -66 82 -122 149 -57 68 -120 148 -140 179 -19 31 -49 72 -66 92 -17 20
-60 71 -96 114 -36 44 -157 174 -268 289 -204 211 -298 318 -346 395 l-26 41
-80 0 -80 0 -31 -62z m191 -290 c36 -40 140 -149 231 -243 185 -191 326 -351
389 -446 24 -35 64 -89 89 -119 25 -30 64 -77 86 -105 60 -77 122 -150 200
-235 39 -42 85 -101 103 -131 18 -30 48 -76 67 -102 19 -27 43 -78 54 -114 19
-64 19 -65 0 -96 -10 -18 -19 -42 -19 -54 0 -12 -22 -50 -48 -85 -60 -79 -105
-149 -165 -259 -26 -47 -64 -115 -86 -150 -103 -165 -172 -283 -226 -384 -32
-60 -71 -128 -85 -150 -27 -39 -85 -133 -204 -331 -34 -56 -81 -135 -106 -175
-25 -40 -53 -86 -62 -102 l-17 -29 -20 41 c-12 22 -34 55 -50 73 -15 18 -36
49 -46 68 -10 19 -32 55 -50 80 -18 25 -50 79 -71 120 -21 41 -66 104 -100
140 -34 36 -111 139 -171 230 -186 278 -326 491 -360 544 -18 28 -52 74 -76
101 -23 28 -56 68 -72 90 -16 22 -55 72 -87 111 -38 48 -54 74 -47 81 6 6 39
64 73 129 59 113 90 168 193 344 52 88 86 159 183 373 39 86 84 179 100 207
16 27 55 104 85 170 133 287 231 480 245 480 3 0 35 -33 70 -72z"/>
</g>
</svg>
